{"asset":{"generator":"VoxelEditor-by-Greakz","version":"2.0"},"scene":0,"scenes":[{"name":"Scene","nodes":[0,1]}],"meshes":[{"name":"Mesh","primitives":[{"attributes":{"POSITION":0,"JOINTS_0":1,"WEIGHTS_0":3},"indices":2,"material":1},{"attributes":{"POSITION":4,"JOINTS_0":5,"WEIGHTS_0":7},"indices":6,"material":2},{"attributes":{"POSITION":8,"JOINTS_0":9,"WEIGHTS_0":11},"indices":10,"material":3},{"attributes":{"POSITION":12,"JOINTS_0":13,"WEIGHTS_0":15},"indices":14,"material":4},{"attributes":{"POSITION":16,"JOINTS_0":17,"WEIGHTS_0":19},"indices":18,"material":0},{"attributes":{"POSITION":20,"JOINTS_0":21,"WEIGHTS_0":23},"indices":22,"material":5},{"attributes":{"POSITION":24,"JOINTS_0":25,"WEIGHTS_0":27},"indices":26,"material":6}]}],"skins":[{"name":"Skeleton","inverseBindMatrices":28,"joints":[1,2,3,4,5,6,7,8,9,10,11,12,13]}],"nodes":[{"name":"MeshNode","mesh":0,"skin":0},{"name":"Root","rotation":[0,0,0,1],"translation":[0,0.35,0],"children":[2,8,11]},{"name":"Body","rotation":[0,0,0,1],"translation":[0,0,0],"children":[3,5,6,7]},{"name":"Neck","rotation":[0,0,-0.25881904510252074,0.9659258262890683],"translation":[0,0,0],"children":[4]},{"name":"Head","rotation":[0,0,0.21643961393810288,0.9762960071199334],"translation":[0,0.4,0]},{"name":"Tail","rotation":[0,0,0.08715574274765817,0.9961946980917455],"translation":[0,0,0]},{"name":"LeftWing","rotation":[0,0,0,1],"translation":[0.06,0.25,0.215]},{"name":"RightWing","rotation":[0,0,0,1],"translation":[0.06,0.25,-0.215]},{"name":"RightLeg","rotation":[0,0,-0.17364817766693033,0.984807753012208],"translation":[0,0,0.11],"children":[9]},{"name":"RightLowerLeg","rotation":[0,0,0.42261826174069944,0.9063077870366499],"translation":[0,-0.2,0],"children":[10]},{"name":"RightFoot","rotation":[0,0,-0.25881904510252074,0.9659258262890683],"translation":[0,-0.16,0]},{"name":"LeftLeg","rotation":[0,0,-0.17364817766693033,0.984807753012208],"translation":[0,0,-0.11],"children":[12]},{"name":"LeftLowerLeft","rotation":[0,0,0.42261826174069944,0.9063077870366499],"translation":[0,-0.2,0],"children":[13]},{"name":"LeftFoot","rotation":[0,0,-0.25881904510252074,0.9659258262890683],"translation":[0,-0.16,0]}],"materials":[{"doubleSided":false,"emissiveFactor":[0,0,0],"name":"Foot","pbrMetallicRoughness":{"baseColorFactor":[1,0.8793103448275862,0.27586206896551724,1],"metallicFactor":0,"roughnessFactor":0.4000000059604645}},{"doubleSided":false,"emissiveFactor":[0,0,0],"name":"GreenLight","pbrMetallicRoughness":{"baseColorFactor":[0.12068965517241376,0.5862068965517241,0.22413793103448285,1],"metallicFactor":0,"roughnessFactor":0.4000000059604645}},{"doubleSided":false,"emissiveFactor":[0,0,0],"name":"GreenDark","pbrMetallicRoughness":{"baseColorFactor":[0.18965517241379315,0.3620689655172414,0.0517241379310345,1],"metallicFactor":0,"roughnessFactor":0.4000000059604645}},{"doubleSided":false,"emissiveFactor":[0,0,0],"name":"Red","pbrMetallicRoughness":{"baseColorFactor":[0.9827586206896552,0.08620689655172409,0.10344827586206902,1],"metallicFactor":0,"roughnessFactor":0.4000000059604645}},{"doubleSided":false,"emissiveFactor":[0,0,0],"name":"Orange","pbrMetallicRoughness":{"baseColorFactor":[1,0.44827586206896564,0.06896551724137939,1],"metallicFactor":0,"roughnessFactor":0.4000000059604645}},{"doubleSided":false,"emissiveFactor":[0,0,0],"name":"Auge","pbrMetallicRoughness":{"baseColorFactor":[1,1,1,1],"metallicFactor":0,"roughnessFactor":0.4000000059604645}},{"doubleSided":false,"emissiveFactor":[0,0,0],"name":"OverAuge","pbrMetallicRoughness":{"baseColorFactor":[0,0,0,1],"metallicFactor":0,"roughnessFactor":0.4000000059604645}}],"accessors":[{"bufferView":0,"componentType":5126,"type":"VEC3","count":2310,"byteOffset":0,"min":[-0.6045767020691091,0.19248489852327463,-0.24625],"max":[0.21875,0.9582945490496205,0.24625]},{"bufferView":1,"componentType":5123,"type":"VEC4","count":2310},{"bufferView":2,"componentType":5123,"type":"SCALAR","count":2310},{"bufferView":0,"componentType":5126,"type":"VEC4","count":2310,"byteOffset":12},{"bufferView":3,"componentType":5126,"type":"VEC3","count":1536,"byteOffset":0,"min":[-0.655274175528189,0.2138611574811289,-0.24625],"max":[0.21875,0.9474415379454373,0.24625]},{"bufferView":4,"componentType":5123,"type":"VEC4","count":1536},{"bufferView":5,"componentType":5123,"type":"SCALAR","count":1536},{"bufferView":3,"componentType":5126,"type":"VEC4","count":1536,"byteOffset":12},{"bufferView":6,"componentType":5126,"type":"VEC3","count":564,"byteOffset":0,"min":[-0.03375,0.44375,-0.24625],"max":[0.33424750735906583,1.1824417449703315,0.24625]},{"bufferView":7,"componentType":5123,"type":"VEC4","count":564},{"bufferView":8,"componentType":5123,"type":"SCALAR","count":564},{"bufferView":6,"componentType":5126,"type":"VEC4","count":564,"byteOffset":12},{"bufferView":9,"componentType":5126,"type":"VEC3","count":1614,"byteOffset":0,"min":[-0.09379784364262503,0.44375,-0.125],"max":[0.34375,1.0524701737871345,0.125]},{"bufferView":10,"componentType":5123,"type":"VEC4","count":1614},{"bufferView":11,"componentType":5123,"type":"SCALAR","count":1614},{"bufferView":9,"componentType":5126,"type":"VEC4","count":1614,"byteOffset":12},{"bufferView":12,"componentType":5126,"type":"VEC3","count":636,"byteOffset":0,"min":[-0.11109232253339746,-0.007752588762691928,-0.20375],"max":[0.380167974224614,0.9738663033912145,0.20375]},{"bufferView":13,"componentType":5123,"type":"VEC4","count":636},{"bufferView":14,"componentType":5123,"type":"SCALAR","count":636},{"bufferView":12,"componentType":5126,"type":"VEC4","count":636,"byteOffset":12},{"bufferView":15,"componentType":5126,"type":"VEC3","count":36,"byteOffset":0,"min":[0.18793423441068313,0.9116041347604804,-0.09375],"max":[0.25564363696314585,0.9793135373129431,0.09375]},{"bufferView":16,"componentType":5123,"type":"VEC4","count":36},{"bufferView":17,"componentType":5123,"type":"SCALAR","count":36},{"bufferView":15,"componentType":5126,"type":"VEC4","count":36,"byteOffset":12},{"bufferView":18,"componentType":5126,"type":"VEC3","count":108,"byteOffset":0,"min":[0.12567206577994905,0.917051368682209,-0.09375],"max":[0.2610908708848745,1.0470229398654058,0.09375]},{"bufferView":19,"componentType":5123,"type":"VEC4","count":108},{"bufferView":20,"componentType":5123,"type":"SCALAR","count":108},{"bufferView":18,"componentType":5126,"type":"VEC4","count":108,"byteOffset":12},{"bufferView":21,"componentType":5126,"type":"MAT4","count":13},{"bufferView":22,"componentType":5126,"type":"SCALAR","count":5,"byteOffset":0,"min":[0],"max":[1]},{"bufferView":22,"componentType":5126,"type":"VEC4","count":5,"byteOffset":20},{"bufferView":22,"componentType":5126,"type":"SCALAR","count":5,"byteOffset":100,"min":[0],"max":[1]},{"bufferView":22,"componentType":5126,"type":"VEC3","count":5,"byteOffset":120},{"bufferView":22,"componentType":5126,"type":"SCALAR","count":5,"byteOffset":180,"min":[0],"max":[1]},{"bufferView":22,"componentType":5126,"type":"VEC4","count":5,"byteOffset":200},{"bufferView":22,"componentType":5126,"type":"SCALAR","count":5,"byteOffset":280,"min":[0],"max":[1]},{"bufferView":22,"componentType":5126,"type":"VEC3","count":5,"byteOffset":300},{"bufferView":22,"componentType":5126,"type":"SCALAR","count":4,"byteOffset":360,"min":[0],"max":[1]},{"bufferView":22,"componentType":5126,"type":"VEC4","count":4,"byteOffset":376},{"bufferView":22,"componentType":5126,"type":"SCALAR","count":4,"byteOffset":440,"min":[0],"max":[1]},{"bufferView":22,"componentType":5126,"type":"VEC3","count":4,"byteOffset":456},{"bufferView":22,"componentType":5126,"type":"SCALAR","count":4,"byteOffset":504,"min":[0],"max":[1]},{"bufferView":22,"componentType":5126,"type":"VEC4","count":4,"byteOffset":520},{"bufferView":22,"componentType":5126,"type":"SCALAR","count":4,"byteOffset":584,"min":[0],"max":[1]},{"bufferView":22,"componentType":5126,"type":"VEC3","count":4,"byteOffset":600},{"bufferView":22,"componentType":5126,"type":"SCALAR","count":4,"byteOffset":648,"min":[0],"max":[1]},{"bufferView":22,"componentType":5126,"type":"VEC4","count":4,"byteOffset":664},{"bufferView":22,"componentType":5126,"type":"SCALAR","count":4,"byteOffset":728,"min":[0],"max":[1]},{"bufferView":22,"componentType":5126,"type":"VEC3","count":4,"byteOffset":744},{"bufferView":22,"componentType":5126,"type":"SCALAR","count":8,"byteOffset":792,"min":[0],"max":[1]},{"bufferView":22,"componentType":5126,"type":"VEC4","count":8,"byteOffset":824},{"bufferView":22,"componentType":5126,"type":"SCALAR","count":4,"byteOffset":952,"min":[0],"max":[1]},{"bufferView":22,"componentType":5126,"type":"VEC3","count":4,"byteOffset":968},{"bufferView":22,"componentType":5126,"type":"SCALAR","count":8,"byteOffset":1016,"min":[0],"max":[1]},{"bufferView":22,"componentType":5126,"type":"VEC4","count":8,"byteOffset":1048},{"bufferView":22,"componentType":5126,"type":"SCALAR","count":4,"byteOffset":1176,"min":[0],"max":[1]},{"bufferView":22,"componentType":5126,"type":"VEC3","count":4,"byteOffset":1192},{"bufferView":22,"componentType":5126,"type":"SCALAR","count":3,"byteOffset":1240,"min":[0],"max":[1]},{"bufferView":22,"componentType":5126,"type":"VEC4","count":3,"byteOffset":1252},{"bufferView":22,"componentType":5126,"type":"SCALAR","count":3,"byteOffset":1300,"min":[0],"max":[1]},{"bufferView":22,"componentType":5126,"type":"VEC3","count":3,"byteOffset":1312},{"bufferView":22,"componentType":5126,"type":"SCALAR","count":3,"byteOffset":1348,"min":[0],"max":[1]},{"bufferView":22,"componentType":5126,"type":"VEC4","count":3,"byteOffset":1360},{"bufferView":22,"componentType":5126,"type":"SCALAR","count":3,"byteOffset":1408,"min":[0],"max":[1]},{"bufferView":22,"componentType":5126,"type":"VEC3","count":3,"byteOffset":1420},{"bufferView":22,"componentType":5126,"type":"SCALAR","count":3,"byteOffset":1456,"min":[0],"max":[1]},{"bufferView":22,"componentType":5126,"type":"VEC4","count":3,"byteOffset":1468},{"bufferView":22,"componentType":5126,"type":"SCALAR","count":3,"byteOffset":1516,"min":[0],"max":[1]},{"bufferView":22,"componentType":5126,"type":"VEC3","count":3,"byteOffset":1528},{"bufferView":22,"componentType":5126,"type":"SCALAR","count":3,"byteOffset":1564,"min":[0],"max":[1]},{"bufferView":22,"componentType":5126,"type":"VEC4","count":3,"byteOffset":1576},{"bufferView":22,"componentType":5126,"type":"SCALAR","count":3,"byteOffset":1624,"min":[0],"max":[1]},{"bufferView":22,"componentType":5126,"type":"VEC3","count":3,"byteOffset":1636},{"bufferView":22,"componentType":5126,"type":"SCALAR","count":3,"byteOffset":1672,"min":[0],"max":[1]},{"bufferView":22,"componentType":5126,"type":"VEC4","count":3,"byteOffset":1684},{"bufferView":22,"componentType":5126,"type":"SCALAR","count":3,"byteOffset":1732,"min":[0],"max":[1]},{"bufferView":22,"componentType":5126,"type":"VEC3","count":3,"byteOffset":1744},{"bufferView":22,"componentType":5126,"type":"SCALAR","count":3,"byteOffset":1780,"min":[0],"max":[1]},{"bufferView":22,"componentType":5126,"type":"VEC4","count":3,"byteOffset":1792},{"bufferView":22,"componentType":5126,"type":"SCALAR","count":3,"byteOffset":1840,"min":[0],"max":[1]},{"bufferView":22,"componentType":5126,"type":"VEC3","count":3,"byteOffset":1852},{"bufferView":23,"componentType":5126,"type":"SCALAR","count":13,"byteOffset":0,"min":[0],"max":[2.4000000000000004]},{"bufferView":23,"componentType":5126,"type":"VEC4","count":13,"byteOffset":52},{"bufferView":23,"componentType":5126,"type":"SCALAR","count":13,"byteOffset":260,"min":[0],"max":[2.4000000000000004]},{"bufferView":23,"componentType":5126,"type":"VEC3","count":13,"byteOffset":312},{"bufferView":23,"componentType":5126,"type":"SCALAR","count":13,"byteOffset":468,"min":[0],"max":[2.4000000000000004]},{"bufferView":23,"componentType":5126,"type":"VEC4","count":13,"byteOffset":520},{"bufferView":23,"componentType":5126,"type":"SCALAR","count":13,"byteOffset":728,"min":[0],"max":[2.4000000000000004]},{"bufferView":23,"componentType":5126,"type":"VEC3","count":13,"byteOffset":780},{"bufferView":23,"componentType":5126,"type":"SCALAR","count":13,"byteOffset":936,"min":[0],"max":[2.4000000000000004]},{"bufferView":23,"componentType":5126,"type":"VEC4","count":13,"byteOffset":988},{"bufferView":23,"componentType":5126,"type":"SCALAR","count":13,"byteOffset":1196,"min":[0],"max":[2.4000000000000004]},{"bufferView":23,"componentType":5126,"type":"VEC3","count":13,"byteOffset":1248},{"bufferView":23,"componentType":5126,"type":"SCALAR","count":13,"byteOffset":1404,"min":[0],"max":[2.4000000000000004]},{"bufferView":23,"componentType":5126,"type":"VEC4","count":13,"byteOffset":1456},{"bufferView":23,"componentType":5126,"type":"SCALAR","count":13,"byteOffset":1664,"min":[0],"max":[2.4000000000000004]},{"bufferView":23,"componentType":5126,"type":"VEC3","count":13,"byteOffset":1716},{"bufferView":23,"componentType":5126,"type":"SCALAR","count":13,"byteOffset":1872,"min":[0],"max":[2.4000000000000004]},{"bufferView":23,"componentType":5126,"type":"VEC4","count":13,"byteOffset":1924},{"bufferView":23,"componentType":5126,"type":"SCALAR","count":13,"byteOffset":2132,"min":[0],"max":[2.4000000000000004]},{"bufferView":23,"componentType":5126,"type":"VEC3","count":13,"byteOffset":2184},{"bufferView":23,"componentType":5126,"type":"SCALAR","count":13,"byteOffset":2340,"min":[0],"max":[2.4000000000000004]},{"bufferView":23,"componentType":5126,"type":"VEC4","count":13,"byteOffset":2392},{"bufferView":23,"componentType":5126,"type":"SCALAR","count":13,"byteOffset":2600,"min":[0],"max":[2.4000000000000004]},{"bufferView":23,"componentType":5126,"type":"VEC3","count":13,"byteOffset":2652},{"bufferView":23,"componentType":5126,"type":"SCALAR","count":13,"byteOffset":2808,"min":[0],"max":[2.4000000000000004]},{"bufferView":23,"componentType":5126,"type":"VEC4","count":13,"byteOffset":2860},{"bufferView":23,"componentType":5126,"type":"SCALAR","count":13,"byteOffset":3068,"min":[0],"max":[2.4000000000000004]},{"bufferView":23,"componentType":5126,"type":"VEC3","count":13,"byteOffset":3120},{"bufferView":23,"componentType":5126,"type":"SCALAR","count":13,"byteOffset":3276,"min":[0],"max":[2.4000000000000004]},{"bufferView":23,"componentType":5126,"type":"VEC4","count":13,"byteOffset":3328},{"bufferView":23,"componentType":5126,"type":"SCALAR","count":13,"byteOffset":3536,"min":[0],"max":[2.4000000000000004]},{"bufferView":23,"componentType":5126,"type":"VEC3","count":13,"byteOffset":3588},{"bufferView":23,"componentType":5126,"type":"SCALAR","count":13,"byteOffset":3744,"min":[0],"max":[2.4000000000000004]},{"bufferView":23,"componentType":5126,"type":"VEC4","count":13,"byteOffset":3796},{"bufferView":23,"componentType":5126,"type":"SCALAR","count":13,"byteOffset":4004,"min":[0],"max":[2.4000000000000004]},{"bufferView":23,"componentType":5126,"type":"VEC3","count":13,"byteOffset":4056},{"bufferView":23,"componentType":5126,"type":"SCALAR","count":13,"byteOffset":4212,"min":[0],"max":[2.4000000000000004]},{"bufferView":23,"componentType":5126,"type":"VEC4","count":13,"byteOffset":4264},{"bufferView":23,"componentType":5126,"type":"SCALAR","count":13,"byteOffset":4472,"min":[0],"max":[2.4000000000000004]},{"bufferView":23,"componentType":5126,"type":"VEC3","count":13,"byteOffset":4524},{"bufferView":23,"componentType":5126,"type":"SCALAR","count":13,"byteOffset":4680,"min":[0],"max":[2.4000000000000004]},{"bufferView":23,"componentType":5126,"type":"VEC4","count":13,"byteOffset":4732},{"bufferView":23,"componentType":5126,"type":"SCALAR","count":13,"byteOffset":4940,"min":[0],"max":[2.4000000000000004]},{"bufferView":23,"componentType":5126,"type":"VEC3","count":13,"byteOffset":4992},{"bufferView":23,"componentType":5126,"type":"SCALAR","count":13,"byteOffset":5148,"min":[0],"max":[2.4000000000000004]},{"bufferView":23,"componentType":5126,"type":"VEC4","count":13,"byteOffset":5200},{"bufferView":23,"componentType":5126,"type":"SCALAR","count":13,"byteOffset":5408,"min":[0],"max":[2.4000000000000004]},{"bufferView":23,"componentType":5126,"type":"VEC3","count":13,"byteOffset":5460},{"bufferView":23,"componentType":5126,"type":"SCALAR","count":13,"byteOffset":5616,"min":[0],"max":[2.4000000000000004]},{"bufferView":23,"componentType":5126,"type":"VEC4","count":13,"byteOffset":5668},{"bufferView":23,"componentType":5126,"type":"SCALAR","count":13,"byteOffset":5876,"min":[0],"max":[2.4000000000000004]},{"bufferView":23,"componentType":5126,"type":"VEC3","count":13,"byteOffset":5928}],"bufferViews":[{"buffer":0,"byteLength":64680,"byteOffset":0,"byteStride":28,"target":34962},{"buffer":1,"byteLength":18480,"byteOffset":0,"target":34962},{"buffer":2,"byteLength":4620,"byteOffset":0,"target":34963},{"buffer":0,"byteLength":43008,"byteOffset":64680,"byteStride":28,"target":34962},{"buffer":1,"byteLength":12288,"byteOffset":18480,"target":34962},{"buffer":2,"byteLength":3072,"byteOffset":4620,"target":34963},{"buffer":0,"byteLength":15792,"byteOffset":107688,"byteStride":28,"target":34962},{"buffer":1,"byteLength":4512,"byteOffset":30768,"target":34962},{"buffer":2,"byteLength":1128,"byteOffset":7692,"target":34963},{"buffer":0,"byteLength":45192,"byteOffset":123480,"byteStride":28,"target":34962},{"buffer":1,"byteLength":12912,"byteOffset":35280,"target":34962},{"buffer":2,"byteLength":3228,"byteOffset":8820,"target":34963},{"buffer":0,"byteLength":17808,"byteOffset":168672,"byteStride":28,"target":34962},{"buffer":1,"byteLength":5088,"byteOffset":48192,"target":34962},{"buffer":2,"byteLength":1272,"byteOffset":12048,"target":34963},{"buffer":0,"byteLength":1008,"byteOffset":186480,"byteStride":28,"target":34962},{"buffer":1,"byteLength":288,"byteOffset":53280,"target":34962},{"buffer":2,"byteLength":72,"byteOffset":13320,"target":34963},{"buffer":0,"byteLength":3024,"byteOffset":187488,"byteStride":28,"target":34962},{"buffer":1,"byteLength":864,"byteOffset":53568,"target":34962},{"buffer":2,"byteLength":216,"byteOffset":13392,"target":34963},{"buffer":3,"byteLength":832,"byteOffset":0},{"buffer":4,"byteLength":1888,"byteOffset":0},{"buffer":4,"byteLength":6084,"byteOffset":1888}],"buffers":[{"byteLength":190512,"uri":"data:application/gltf-buffer;base64,"},{"byteLength":54432,"uri":"data:application/gltf-buffer;base64,"},{"byteLength":13608,"uri":"data:application/gltf-buffer;base64,"},{"byteLength":832,"uri":"data:application/gltf-buffer;base64,"},{"byteLength":7972,"uri":"data:application/gltf-buffer;base64,"}],"extras":{"generator":{"name":"VoxelEditor","author":"Greakz","version":"0.1.3"}},"animations":[{"name":"Jump","channels":[{"sampler":0,"target":{"node":1,"path":"rotation"}},{"sampler":1,"target":{"node":1,"path":"translation"}},{"sampler":2,"target":{"node":2,"path":"rotation"}},{"sampler":3,"target":{"node":2,"path":"translation"}},{"sampler":4,"target":{"node":3,"path":"rotation"}},{"sampler":5,"target":{"node":3,"path":"translation"}},{"sampler":6,"target":{"node":4,"path":"rotation"}},{"sampler":7,"target":{"node":4,"path":"translation"}},{"sampler":8,"target":{"node":5,"path":"rotation"}},{"sampler":9,"target":{"node":5,"path":"translation"}},{"sampler":10,"target":{"node":6,"path":"rotation"}},{"sampler":11,"target":{"node":6,"path":"translation"}},{"sampler":12,"target":{"node":7,"path":"rotation"}},{"sampler":13,"target":{"node":7,"path":"translation"}},{"sampler":14,"target":{"node":8,"path":"rotation"}},{"sampler":15,"target":{"node":8,"path":"translation"}},{"sampler":16,"target":{"node":9,"path":"rotation"}},{"sampler":17,"target":{"node":9,"path":"translation"}},{"sampler":18,"target":{"node":10,"path":"rotation"}},{"sampler":19,"target":{"node":10,"path":"translation"}},{"sampler":20,"target":{"node":11,"path":"rotation"}},{"sampler":21,"target":{"node":11,"path":"translation"}},{"sampler":22,"target":{"node":12,"path":"rotation"}},{"sampler":23,"target":{"node":12,"path":"translation"}},{"sampler":24,"target":{"node":13,"path":"rotation"}},{"sampler":25,"target":{"node":13,"path":"translation"}}],"samplers":[{"input":29,"interpolation":"LINEAR","output":30},{"input":31,"interpolation":"LINEAR","output":32},{"input":33,"interpolation":"LINEAR","output":34},{"input":35,"interpolation":"LINEAR","output":36},{"input":37,"interpolation":"LINEAR","output":38},{"input":39,"interpolation":"LINEAR","output":40},{"input":41,"interpolation":"LINEAR","output":42},{"input":43,"interpolation":"LINEAR","output":44},{"input":45,"interpolation":"LINEAR","output":46},{"input":47,"interpolation":"LINEAR","output":48},{"input":49,"interpolation":"LINEAR","output":50},{"input":51,"interpolation":"LINEAR","output":52},{"input":53,"interpolation":"LINEAR","output":54},{"input":55,"interpolation":"LINEAR","output":56},{"input":57,"interpolation":"LINEAR","output":58},{"input":59,"interpolation":"LINEAR","output":60},{"input":61,"interpolation":"LINEAR","output":62},{"input":63,"interpolation":"LINEAR","output":64},{"input":65,"interpolation":"LINEAR","output":66},{"input":67,"interpolation":"LINEAR","output":68},{"input":69,"interpolation":"LINEAR","output":70},{"input":71,"interpolation":"LINEAR","output":72},{"input":73,"interpolation":"LINEAR","output":74},{"input":75,"interpolation":"LINEAR","output":76},{"input":77,"interpolation":"LINEAR","output":78},{"input":79,"interpolation":"LINEAR","output":80}]},{"name":"Walk","channels":[{"sampler":0,"target":{"node":1,"path":"rotation"}},{"sampler":1,"target":{"node":1,"path":"translation"}},{"sampler":2,"target":{"node":2,"path":"rotation"}},{"sampler":3,"target":{"node":2,"path":"translation"}},{"sampler":4,"target":{"node":3,"path":"rotation"}},{"sampler":5,"target":{"node":3,"path":"translation"}},{"sampler":6,"target":{"node":4,"path":"rotation"}},{"sampler":7,"target":{"node":4,"path":"translation"}},{"sampler":8,"target":{"node":5,"path":"rotation"}},{"sampler":9,"target":{"node":5,"path":"translation"}},{"sampler":10,"target":{"node":6,"path":"rotation"}},{"sampler":11,"target":{"node":6,"path":"translation"}},{"sampler":12,"target":{"node":7,"path":"rotation"}},{"sampler":13,"target":{"node":7,"path":"translation"}},{"sampler":14,"target":{"node":8,"path":"rotation"}},{"sampler":15,"target":{"node":8,"path":"translation"}},{"sampler":16,"target":{"node":9,"path":"rotation"}},{"sampler":17,"target":{"node":9,"path":"translation"}},{"sampler":18,"target":{"node":10,"path":"rotation"}},{"sampler":19,"target":{"node":10,"path":"translation"}},{"sampler":20,"target":{"node":11,"path":"rotation"}},{"sampler":21,"target":{"node":11,"path":"translation"}},{"sampler":22,"target":{"node":12,"path":"rotation"}},{"sampler":23,"target":{"node":12,"path":"translation"}},{"sampler":24,"target":{"node":13,"path":"rotation"}},{"sampler":25,"target":{"node":13,"path":"translation"}}],"samplers":[{"input":81,"interpolation":"LINEAR","output":82},{"input":83,"interpolation":"LINEAR","output":84},{"input":85,"interpolation":"LINEAR","output":86},{"input":87,"interpolation":"LINEAR","output":88},{"input":89,"interpolation":"LINEAR","output":90},{"input":91,"interpolation":"LINEAR","output":92},{"input":93,"interpolation":"LINEAR","output":94},{"input":95,"interpolation":"LINEAR","output":96},{"input":97,"interpolation":"LINEAR","output":98},{"input":99,"interpolation":"LINEAR","output":100},{"input":101,"interpolation":"LINEAR","output":102},{"input":103,"interpolation":"LINEAR","output":104},{"input":105,"interpolation":"LINEAR","output":106},{"input":107,"interpolation":"LINEAR","output":108},{"input":109,"interpolation":"LINEAR","output":110},{"input":111,"interpolation":"LINEAR","output":112},{"input":113,"interpolation":"LINEAR","output":114},{"input":115,"interpolation":"LINEAR","output":116},{"input":117,"interpolation":"LINEAR","output":118},{"input":119,"interpolation":"LINEAR","output":120},{"input":121,"interpolation":"LINEAR","output":122},{"input":123,"interpolation":"LINEAR","output":124},{"input":125,"interpolation":"LINEAR","output":126},{"input":127,"interpolation":"LINEAR","output":128},{"input":129,"interpolation":"LINEAR","output":130},{"input":131,"interpolation":"LINEAR","output":132}]}]}